<svg width="62" height="82" viewBox="0 0 62 82" fill="none" xmlns="http://www.w3.org/2000/svg">
<path fill-rule="evenodd" clip-rule="evenodd" d="M9.26148 9.21242C10.9809 9.17721 13.2931 9.49707 14.7293 9.96889C17.2237 10.7883 18.7448 12.1132 19.7452 14.3377L20.2616 15.4857L20.4586 14.8723C20.752 13.9588 20.8309 12.8579 20.6789 11.7994C20.519 10.6849 20.4483 10.6831 22.5932 11.8475C26.3743 13.9004 28.1773 15.9196 28.67 18.6534C29.2821 22.05 28.2683 25.52 25.9821 27.8539C25.0988 28.7557 22.8481 30.0039 21.528 30.324C19.4378 30.8311 17.1863 30.613 15.4099 29.7313C14.0369 29.0498 13.5401 28.5144 12.5353 26.6336C11.781 25.2218 11.6804 24.939 11.4925 23.7038C11.3782 22.9517 11.3414 22.3277 11.4107 22.3171C11.48 22.3065 14.7348 23.1943 18.6435 24.29C22.5522 25.3858 25.8747 26.239 26.0268 26.1859C26.5751 25.995 27.4668 23.7878 27.7605 21.8941C28.277 18.5652 27.3292 16.1728 24.7281 14.239C24.3252 13.9395 23.9368 13.6914 23.8651 13.6877C23.7933 13.684 23.3832 14.8929 22.9536 16.3745C22.4421 18.1384 22.0781 19.1198 21.8986 19.2183C21.7118 19.3209 20.183 18.9326 17.1009 17.9998C14.6128 17.2468 12.3546 16.5564 12.0823 16.4654L11.5875 16.3001L11.5117 15.3576C11.3253 13.0416 10.5818 11.4844 8.96123 10.0158C8.49529 9.59358 8.16601 9.2442 8.22965 9.23957C8.2933 9.23494 8.75763 9.22266 9.26148 9.21242ZM37.9813 25.629L38.23 26.0819L26.1957 32.6902L14.1614 39.2985L13.9541 38.9211C13.8402 38.7135 13.8036 38.4743 13.8728 38.3895C13.9421 38.3048 19.3389 35.2971 25.8657 31.7058L37.7326 25.1761L37.9813 25.629ZM38.837 27.1873C39.6937 28.7473 40.114 31.1816 39.9034 33.3636C39.7586 34.8654 39.1014 36.8381 38.6138 37.2347C38.395 37.4126 34.8292 39.3954 30.6897 41.641L23.1633 45.7237L22.5649 45.6532C21.5838 45.5375 19.3423 44.6097 18.1991 43.8461C16.9605 43.0187 15.8276 41.9017 14.9974 40.689L14.4122 39.8345L26.4633 33.217L38.5143 26.5995L38.837 27.1873ZM40.9421 40.5289C42.2379 42.8885 42.4381 43.319 42.2196 43.277C42.077 43.2495 41.8056 43.0292 41.6164 42.7875C41.0785 42.1007 39.7148 41.1912 38.8412 40.937C38.3783 40.8023 37.662 40.7571 37.1262 40.8288C36.3066 40.9385 35.965 41.0826 33.9994 42.1475L31.7928 43.343L36.0406 51.1578L40.2883 58.9725L42.4008 57.8125C43.5626 57.1746 44.8215 56.4007 45.1984 56.0929C45.9496 55.4791 46.6824 54.4985 46.8182 53.9251C46.9375 53.4219 46.8154 52.4181 46.5476 51.6975C46.425 51.3675 46.384 51.0678 46.4567 51.0314C46.6317 50.9438 50.9306 58.6008 50.9269 58.9937C50.9239 59.3182 50.9421 59.3314 50.0909 58.3897C49.5333 57.7728 48.6692 57.3477 47.8038 57.2645C46.7745 57.1656 45.3024 57.6725 43.0339 58.9069L40.9591 60.0358L44.6604 66.9296C47.5373 72.288 48.3603 73.9106 48.3554 74.2149C48.3452 74.8456 47.8716 75.5227 47.1709 75.9082C46.6118 76.2159 46.4544 76.2292 45.7631 76.0281L44.9848 75.8015L37.5293 62.2338C33.2351 54.4192 29.8004 48.2922 29.4294 47.7845C28.3398 46.2941 27.0649 45.7125 25.4554 45.9714C25.1318 46.0235 24.6849 46.1483 24.4621 46.2488C23.2409 46.7999 27.2291 44.4779 32.9169 41.3263L39.4058 37.731L40.9421 40.5289Z" fill="url(#paint0_linear)"/>
<defs>
<linearGradient id="paint0_linear" x1="12.1223" y1="7.1008" x2="49.2722" y2="74.7543" gradientUnits="userSpaceOnUse">
<stop stop-color="#3D27EF"/>
<stop offset="0.256986" stop-color="#5B2BE2"/>
<stop offset="0.608502" stop-color="#CE4A67"/>
<stop offset="0.886026" stop-color="#753F91"/>
</linearGradient>
</defs>
</svg>
