<svg width="552" height="554" viewBox="0 0 552 554" fill="none" xmlns="http://www.w3.org/2000/svg">
<path d="M501.112 272.45C498.571 148.01 395.632 49.1919 271.192 51.7333C146.752 54.2748 47.9342 157.214 50.4757 281.653C53.0171 406.093 155.956 504.911 280.396 502.37C404.836 499.828 503.654 396.89 501.112 272.45Z" fill="url(#paint0_radial)"/>
<path d="M496.457 323.213L496.834 321.807L494.545 331.954C490.376 347.513 479.633 362.71 473.115 371.777C431.037 427.425 368.396 466.858 349.734 476.275C421.04 423.778 488.435 349.737 496.457 323.213ZM497.489 235.64C498.033 248.266 484.598 286.359 388.387 399.481C418.815 375.16 446.17 347.228 469.851 316.299C501.984 272.673 500.132 253.885 499.53 247.699L497.374 234.264L497.539 235.653L497.489 235.64ZM322.06 492.422C310.1 497.57 297.439 500.904 284.495 502.315C289.985 501.903 297.139 501.507 302.582 500.867C309.675 499.668 316.373 496.775 322.11 492.436L322.06 492.422ZM458.587 406.725C432.434 435.062 380.403 477.66 355.169 488.114L356.907 487.45C377.021 479.127 395.771 467.83 412.529 453.937C429.771 439.964 445.312 424.014 458.831 406.414L458.764 406.665L458.587 406.725ZM244.599 437.99C224.622 446.893 163.927 474.044 143.202 459.238C148.637 462.846 155.811 467.996 161.504 471.243C185.099 481.761 227.987 451.399 245.349 437.599L244.599 437.99ZM337.074 59.9409C352.741 72.7462 285.954 164.595 263.926 195.006C264.385 194.698 315.412 160.062 344.811 109.57C350.428 97.8411 363.609 70.3324 337.325 60.0081L337.074 59.9409ZM126.593 358.599C112.695 361.277 70.3926 369.578 63.0077 350.761C64.9532 355.747 67.3448 362.682 69.3208 367.354C72.1419 373.49 75.9452 381.179 79.1383 386.931C81.2373 389.537 86.9328 396.389 104.281 385.652C87.4869 383.68 82.2858 380.404 76.8105 376.946C81.7491 378.592 95.6381 383.174 128.377 358.163L126.392 358.545L126.593 358.599ZM445.094 168.772C399.405 229.263 328.785 301.687 228.958 389.955C229.309 390.049 274.485 372.028 345.937 309.349C342.735 313.871 339.188 318.676 334.987 324.921C342.907 321.663 364.794 310.851 398.207 276.498C414.805 258.132 427.671 236.711 436.087 213.431C433.083 214.401 432.31 214.678 416.822 228.711C426.225 213.693 439.365 193.167 445.147 169.378C445.147 169.378 445.255 168.977 445.295 168.826L445.094 168.772ZM451.509 352.431C367.19 426.187 339.325 447.663 297.459 480.236C311.513 474.455 325.098 467.591 338.089 459.705C326.052 467.885 293.986 489.58 269.694 499.533C295.291 495.955 328.547 480.658 360.337 457.382C386.803 437.862 410.835 415.241 431.919 390.004C409.602 407.641 404.288 411.812 382.548 428.097L382.089 428.404L382.183 428.053C408.86 405.698 432.465 379.915 452.384 351.374L450.99 352.561L451.509 352.431ZM490.783 208.666C492.642 221.806 468.505 266.715 452.64 296.409C469.228 283.125 482.54 266.206 491.551 246.96C495.156 237.973 495.924 228.098 493.754 218.661L490.51 207.678L490.733 208.653L490.783 208.666ZM264.284 80.031C219.546 137.979 143.984 202.946 92.4086 237.22C92.7098 237.301 132.863 232.405 197.94 174.043C253.949 121.213 263.392 90.3897 264.583 79.5193L264.489 79.8707L264.284 80.031ZM288.043 60.6287C270.921 94.613 234.956 138.288 193.48 188.879C224.309 170.107 251.421 145.825 273.465 117.244C281.304 106.056 301.982 76.4679 288.083 60.4781L288.043 60.6287ZM151.263 139.641L84.6257 176.12C84.8158 177.333 85.2792 178.488 85.9807 179.496C76.8562 179.418 75.8615 177.107 75.4278 175.915C75.4278 175.915 65.4823 196.167 78.9018 198.687C93.6419 196.88 109.91 182.142 116.268 175.883C114.118 176.276 111.942 176.769 109.793 177.161C125.926 167.563 140.015 154.887 151.26 139.855L150.255 140.393L151.263 139.641ZM126.138 296.45C104.519 301.847 53.7625 314.392 51.5813 299.444L52.5558 307.451C54.9484 324.823 65.0624 326.027 70.4976 326.623C92.3365 325.427 117.044 305.095 126.594 296.357L126.192 296.249L126.138 296.45ZM210.327 62.5607C211.394 65.7666 211.749 69.1662 211.37 72.5234C205.006 70.1727 203.981 71.1891 199.614 75.2373C192.416 82.0237 193.821 85.4127 194.94 87.8642C195.748 89.6032 196.752 91.2441 197.933 92.7549C202.814 89.8959 207.248 86.3351 211.094 82.1866C210.711 87.423 210.068 92.637 209.167 97.8093C214.076 93.7449 229.968 80.4117 231.529 68.5642C230.75 61.6311 223.626 59.5072 210.371 62.196L210.327 62.5607ZM83.0076 222.113C76.8338 220.458 57.8439 215.639 66.2774 194.605C64.2656 200.306 61.5284 207.911 59.7675 213.68C58.6393 217.009 58.1193 220.514 58.2322 224.028C58.7312 226.582 59.5295 230.831 64.7551 230.402C71.5083 229.228 77.8439 226.33 83.1483 221.989L83.0076 222.113ZM107.453 146.139L107.553 143.96C108.155 141.456 108.339 138.87 108.098 136.306C107.884 135.495 107.884 135.495 104.311 134.376C101.362 137.807 98.8205 141.567 96.7359 145.581C98.7054 140.905 101.293 136.514 104.43 132.525C105.103 131.7 105.7 130.816 106.214 129.883C101.704 134.943 97.7371 140.461 94.3785 146.348C94.096 147.402 92.6904 150.038 94.9107 149.18L95.1617 149.247C93.035 155.779 97.9381 153.542 99.6026 152.751C102.465 151.025 105.136 149 107.57 146.708L107.65 146.407L107.453 146.139ZM454.09 139.013C454.311 139.394 471.088 186.604 453.093 223.044C450.744 227.795 428.349 271.018 355.478 339.395C230.227 456.895 129.714 444.326 128.81 444.084C125.612 443.407 122.639 441.925 120.173 439.779L123.734 443.154C139.234 454.57 237.534 451.106 341.96 360.735C403.697 306.804 442.075 255.329 456.167 227.634C473.245 194.014 457.676 143.901 454.575 139.412L452.65 136.959C453.16 137.607 453.624 138.288 454.04 138.999L454.09 139.013ZM428.15 110.543C431.491 115.742 435.039 132.617 436.916 141.673C440.227 141.162 441.436 140.464 445.033 135.671C449.908 151.61 421.823 141.987 412.468 149.594C386.871 169.633 369.666 197.301 346.921 220.149C310.563 256.457 270.304 288.653 234.725 325.869C211.245 350.456 200.285 384.532 173.594 406.645C158.869 418.838 111.829 424.74 102.527 419.504C101.461 418.857 100.497 418.055 99.6677 417.124L102.174 420.216C115.148 432.031 166.508 421.047 178.415 411.541C203.896 390.933 214.404 358.942 236.113 335.547C268.412 300.734 306.023 271.594 339.449 237.998C366.323 210.984 386.914 178.306 416.456 153.783C425.838 146.075 447.264 156.658 448.576 140.117C448.503 134.68 446.49 129.447 442.9 125.363L440.734 123.007L427.989 110.339L428.341 110.433L428.15 110.543ZM434.434 156.555C394.169 213.873 306.178 301.332 236.88 362.597C288.155 328.242 401.242 227.227 434.511 156.469L434.434 156.555ZM347.657 330.037C306.26 353.428 271.602 387.609 226.34 404.747C266.589 400.092 302.365 369.169 347.72 330L347.657 330.037ZM202.707 416.651C134.682 440.439 114.971 434.297 109.207 428.503L112.142 431.602C131.514 450.457 177.054 430.274 202.821 416.628L202.707 416.651ZM344.638 178.276C301.408 226.987 255.305 273.071 206.576 316.282C172.87 346.307 172.87 346.306 152.607 381.171L149.13 386.318L147.327 388.632C121.919 418.406 96.039 411.794 88.4292 401.847L91.8608 406.909C95.069 410.518 99.1587 413.232 103.73 414.787C108.302 416.342 113.199 416.684 117.942 415.78C135.809 413.144 146.366 402.254 154.355 391.914L156.126 389.322C157.262 387.69 158.574 385.405 159.624 383.696C178.223 351.022 178.223 351.023 200.711 330.742C267.669 269.979 320.094 210.648 344.688 178.289L344.638 178.276ZM240.465 256.664C215.796 275.446 189.748 292.352 165.47 311.885C159.606 316.278 154.71 321.834 151.091 328.205C147.875 334.8 145.532 341.786 144.124 348.987C139.847 364.948 136.81 371.666 122.641 385.192C141.505 375.022 144.558 363.628 148.798 350.616C150.677 342.102 154.452 334.122 159.842 327.268C165.415 321.313 171.653 316.017 178.435 311.485C200.671 295.122 221.442 276.856 240.511 256.892L240.465 256.664ZM365.782 70.0539C382.22 78.9773 350.512 137.081 288.696 211.38C333.117 170.078 399.143 85.2871 366.846 70.5004L365.34 70.0969C365.34 70.0969 365.641 70.1776 365.742 70.2045L365.782 70.0539ZM406.3 92.9072C410.917 97.1571 405.861 98.761 402.174 99.8712C394.66 102.215 391.558 104.558 389.42 109.526C384.368 121.353 385.426 134.87 379.508 146.518L379.373 147.02C377.526 150.468 375.257 153.673 372.621 156.562C376.174 153.764 379.252 150.411 381.737 146.632C385.878 139.796 388.893 132.339 390.667 124.547C391.69 119.985 393.373 115.597 395.663 111.522C398.49 107.599 401.779 106.167 408.325 104.424C410.819 103.748 413.15 103.081 413.76 102.007C415.135 99.686 412.353 97.219 411.059 96.2267L405.604 92.2905C405.907 92.4821 406.19 92.702 406.45 92.9475L406.3 92.9072ZM415.249 99.6626C418.219 104.211 419.501 109.656 418.872 115.051C418.743 116.565 418.096 117.987 417.04 119.079C415.519 120.351 413.884 121.48 412.156 122.45C407.177 126.173 409.213 131.023 410.572 134.184C410.094 130.344 410.028 129.788 411.061 128.344C412.773 126.401 415.116 125.124 417.676 124.737C422.096 123.5 424.718 122.75 425.089 117.147C424.982 113.745 424.092 110.412 422.49 107.408C420.889 104.404 418.617 101.809 415.851 99.824L414.868 99.0764L415.44 99.5524L415.249 99.6626ZM382.11 77.9796C383.672 78.781 385.05 79.898 386.158 81.2597C387.265 82.6214 388.078 84.1982 388.544 85.8902C388.544 85.8902 391.925 83.5144 387.369 80.8412L381.324 77.5C381.324 77.5 381.927 77.6614 382.178 77.7286L382.11 77.9796ZM241.534 208.103C214.958 231.666 186.698 253.257 156.978 272.705C153.687 274.669 150.71 277.118 148.146 279.968C138.74 291.381 146.621 309.954 131.932 319.198C131.282 319.616 64.7449 359.134 55.6842 325.289L57.1563 331.44C58.6196 336.62 63.0559 352.388 94.8285 343.632C110.537 338.919 125.375 331.685 138.764 322.212C150.556 311.331 141.674 293.081 153.215 282.133C155.105 280.4 157.129 278.82 159.269 277.407C189.003 256.495 216.88 233.061 242.592 207.365L241.684 208.144L241.534 208.103ZM303.797 53.23C339.766 62.545 240.713 197.716 181.081 234.351C179.731 235.172 50.1228 301.474 50.8037 263.999L50.6725 267.299C50.593 305.742 179.567 251.644 220.931 211.513C251.902 181.455 350.716 61.2292 303.51 53.0991L301.686 52.8794C302.288 53.0408 303.141 53.2694 303.744 53.4308L303.797 53.23ZM184.889 202.071C104.256 269.499 50.72 277.963 53.1045 243.365L53.2875 241.478L52.4704 247.338C48.4692 279.136 84.7027 282.442 150.044 232.328C162.27 222.925 173.954 212.836 185.039 202.111L184.889 202.071ZM231.677 55.9621C255.8 51.6663 243.203 77.3949 239.763 82.6058C238.717 84.1783 237.545 85.6635 236.259 87.0468C230.562 93.0517 223.32 97.1902 217.512 103.004C204.794 115.735 194.514 130.411 181.983 143.246C173.018 152.41 162.319 162.024 161.116 163.1C141.862 180.645 120.821 196.121 98.3367 209.274C110.325 204.686 139.667 188.34 174.674 156.673C183.62 148.58 190.045 142.071 190.122 141.984L196.201 135.758C206.4 125.203 214.512 112.798 225.131 102.679C230.781 97.2527 237.618 93.2208 242.846 87.3594C246.816 82.7875 249.582 77.297 250.892 71.3858C251.886 66.2724 254.618 51.4573 231.892 55.9656L230.804 56.2121L231.664 56.0122L231.677 55.9621ZM253.298 52.7712C260.326 52.2409 267.279 54.5099 272.641 59.0838C272.641 59.0838 274.81 56.007 269.575 53.2593C265.833 52.0026 261.842 51.6716 257.944 52.2947L256.013 52.4765L251.758 52.8966L253.298 52.7712ZM72.6748 179.965C72.6748 179.965 72.8227 179.413 74.9035 174.86L71.7829 181.286L71.6887 181.638L72.725 179.979L72.6748 179.965ZM173.823 78.3328C176.172 79.6075 176.371 86.4931 176.163 92.0861C171.707 82.0156 155.123 105.761 147.938 121.535C154.956 119.435 171.939 106.448 175.78 96.1259C175.59 100.293 174.497 104.368 172.576 108.07C170.655 111.773 167.952 115.014 164.655 117.568C156.584 123.798 146.321 123.953 137.309 127.671C131.928 129.887 129.323 135.591 124.152 138.025C122.856 138.646 121.872 138.705 121.263 138.166C120.655 137.626 121.012 138.099 120.264 133.863C119.23 133.909 119.18 133.896 115.573 138.524C99.0785 159.927 91.1485 163.02 89.1497 163.453C83.7726 164.648 84.4777 157.198 94.8745 143.091L93.7512 144.673C82.4858 160.215 81.4077 168.856 86.8816 167.902C90.9528 167.164 99.61 160.553 112.255 144.682C113.605 142.548 115.279 140.638 117.216 139.018L117.918 139.206C119.309 143.452 119.609 144.34 122.198 143.312C128.145 141.193 131.241 135.46 136.263 132.179C143.861 127.113 153.373 127.349 161.294 123.285C167.903 120.32 173.346 115.253 176.776 108.873C184.295 94.2648 179.274 77.2649 173.887 78.2961L173.823 78.3328ZM199.309 109.101C194.511 111.206 190.32 114.487 187.124 118.64C180.418 126.986 172.624 134.396 163.951 140.674C172.317 138.467 179.906 133.982 185.875 127.719C191.187 122.149 193.76 114.554 199.309 109.101ZM470.092 162.613C471.254 164.7 497.491 214.552 428.577 290.446C424.723 294.792 414.527 305.94 399.738 320.376L395.382 324.588C370.024 349.157 341.784 370.425 316.152 394.812C298.475 411.595 286.797 433.696 267.271 448.745C252.278 460.329 204.651 486.893 181.077 481.114C180.123 480.858 178.868 480.522 177.982 480.016L182.759 482.264C191.041 484.483 206.45 488.612 251.643 465.108C268.129 456.184 268.129 456.184 398.823 329.814C416.717 312.689 433.323 294.267 448.505 274.697C494.568 212.209 472.964 167.956 472.213 166.141L470.119 162.513L470.092 162.613ZM483.26 188.359C486.849 198.251 484.946 222.219 469.049 259.867C477.45 245.979 492.684 211.812 485.83 194.428L484.548 191.179L482.863 187.231L483.273 188.309L483.26 188.359ZM446.621 299.799C438.845 308.744 433.409 314.173 426.059 321.726C406.547 341.944 384.608 359.574 364.959 379.701C341.681 403.536 324.809 433.176 297.942 453.736C297.279 454.204 234.17 501.204 199.096 488.955L206.139 491.38C214.772 494.432 224.162 494.608 232.903 491.88C261.813 483.122 288.624 468.538 311.685 449.026C313.183 447.652 316.578 444.419 319.762 440.969C335.113 423.832 348.029 404.538 363.357 387.287C384.017 363.988 407.864 343.856 428.748 320.725C432.268 316.826 439.36 308.828 447.419 298.83L446.571 299.786L446.621 299.799ZM293.327 472.565C244.729 494.726 229.867 494.779 217.954 494.868L224.68 496.67C242.177 498.024 271.663 484.352 293.3 472.666L293.327 472.565ZM415.891 354.453C394.66 367.022 377.05 384.878 364.777 406.281C382.46 389.878 400.054 371.997 415.637 354.6L415.891 354.453ZM500.942 261.903C500.942 261.903 500.933 283.419 470.231 331.948C500.154 291.549 501.305 269.586 501.308 269.371L500.938 262.117L500.942 261.903ZM501.234 286.513C500.361 291.981 493.204 322.503 440.633 383.785C495.311 326.887 500.638 294.96 500.837 293.615L501.224 286.349L501.234 286.513ZM479.466 374.178C480.174 372.539 479.99 372.22 479.482 371.708C477.845 371.592 474.441 374.661 467.325 382.545C454.146 397.197 442.111 412.801 429.106 427.607C430.939 425.785 436.573 419.817 450.476 404.068C466.937 385.4 474.267 377.519 476.985 377.01L477.437 377.131C477.467 377.822 477.284 378.505 476.913 379.089L479.392 374.051L479.466 374.178ZM418.296 434.824C367.072 477.424 351.629 490.285 322.338 497.607C337.881 493.697 352.724 487.403 366.34 478.949C384.898 467.513 389.345 463.164 418.296 434.824ZM470.834 390.532C471.17 389.278 471.224 389.077 471.026 388.809C469.772 388.472 463.627 393.335 449.419 412.23C453.474 407.937 457.128 403.537 461.283 399.271C463.974 396.656 467.265 393.611 468.172 393.639C468.172 393.639 468.443 394.034 467.809 394.994L470.492 390.602L470.834 390.532ZM263.847 490.435C263.389 492.141 262.932 493.848 256.55 495.581C254.106 496.271 251.401 496.729 248.277 497.345C245.153 497.96 243.496 498.323 243.12 498.922L243.391 499.317C245.001 499.974 246.687 500.425 248.41 500.662L253.996 501.298C251.976 501.043 250 500.513 248.124 499.724C247.328 499.081 247.328 499.081 255.394 496.885C261.484 495.235 264.175 493.427 264.05 491.081L264.238 490.378L263.847 490.435ZM328.72 482.425C315.414 488.113 287.748 500.013 272.649 502.154C287.217 501.334 301.441 497.404 314.363 490.629C319.362 488.128 324.218 485.352 328.91 482.315L328.72 482.425ZM447.947 422.542C427.253 445.772 402.559 465.102 375.039 479.612C378.649 477.782 383.469 475.254 387.006 473.297C397.688 467.144 407.822 460.087 417.297 452.202C428.252 443.224 438.452 433.362 447.793 422.715L447.947 422.542ZM463.412 402.369C461.279 405.51 458.936 408.433 456.857 411.372C457.618 410.339 458.516 409.396 459.291 408.313L460.015 407.215L463.606 402.045L463.412 402.369ZM293.033 187.365C265.02 208.249 238.49 231.051 213.634 255.608C233.617 244.566 252.051 230.928 268.454 215.048C277.408 206.407 285.693 197.1 293.237 187.205L293.033 187.365ZM388.787 145.616C379.956 166.328 361.626 180.729 352.397 201.12C362.479 192.682 371.771 183.341 380.155 173.213C386.416 165.487 389.557 155.697 388.961 145.77L388.787 145.616ZM139.803 116.558C134.617 118.74 129.971 122.03 126.192 126.199C127.446 126.535 130.47 125.892 134.262 122.981C136.438 121.208 138.313 119.095 139.813 116.722L139.803 116.558ZM155.441 91.3216C151.049 97.6762 151.049 97.6762 150.861 98.3789C150.39 100.136 153.246 99.7172 153.246 99.7172C153.246 99.7172 159.641 92.7157 156.7 91.4436C156.317 91.2745 155.911 91.1656 155.495 91.1208L155.441 91.3216ZM150.917 101.783C148.772 103.144 146.717 104.642 144.766 106.268C144.574 106.4 144.413 106.572 144.295 106.773C144.176 106.973 144.102 107.197 144.078 107.428C143.984 107.78 144.519 108.192 144.284 108.667C143.939 109.436 143.353 110.072 142.615 110.479L141.101 111.311C144.264 110.354 147.153 108.657 149.529 106.36C149.755 106.106 149.895 105.786 149.928 105.446C149.961 105.107 149.885 104.766 149.712 104.473C149.271 103.709 149.271 103.709 149.466 103.385C149.66 103.06 149.6 102.883 150.93 101.733L150.917 101.783ZM114.675 133.442C115.514 131.515 116.735 129.367 117.074 128.705C117.717 127.705 118.254 126.641 118.678 125.53C118.906 124.677 117.624 125.248 115.953 125.661C114.282 126.074 114.988 126.048 114.898 126.185C114.151 127.418 113.594 128.755 113.243 130.153C112.799 131.809 113.296 132.965 114.347 133.461L114.648 133.542L114.675 133.442ZM123.511 128.17C124.143 125.811 124.359 125.008 124.265 125.359L123.729 125.754C120.69 128.06 119.773 127.868 119.371 127.76C118.97 127.653 116.008 132.884 117.316 133.02C117.316 133.02 117.316 133.02 117.618 133.1C117.919 133.181 118.518 132.75 122.701 128.383C123.831 127.18 123.76 127.645 123.685 128.324L123.511 128.17ZM161.249 149.956C158.318 150.433 155.518 151.515 153.028 153.133C148.542 156.019 144.996 160.018 140.781 163.3C134.718 166.976 128.441 170.288 121.985 173.219C129.301 173.99 136.654 172.149 142.744 168.022C149.579 162.591 154.107 154.928 161.376 149.882L161.249 149.956ZM99.1565 223.481C90.4834 226.537 64.0626 235.596 57.4053 229.724C57.4539 231.405 57.9521 233.042 58.8482 234.464C59.7443 235.887 61.0054 237.044 62.5002 237.814C72.9653 242.124 91.7389 229.079 99.575 223.324L99.1565 223.481ZM99.5981 287.886C88.9174 290.404 56.591 297.612 51.2401 285.258C51.3974 287.334 51.9691 289.358 52.9216 291.21C53.8741 293.062 55.1881 294.705 56.7859 296.041C58.3837 297.376 60.2329 298.378 62.2244 298.988C64.2159 299.597 66.3093 299.801 68.381 299.588C79.679 298.307 90.4853 294.254 99.8392 287.789L99.5981 287.886ZM186.808 455.106C173.94 456.553 142.727 459.003 133.544 451.916L134.477 452.65L137.761 455.251C142.309 458.353 153.506 466.356 186.909 455.133L186.808 455.106ZM265.148 443.819C244.547 452.425 224.485 462.265 205.069 473.287C216.14 471.615 226.864 468.147 236.817 463.018C247.07 457.765 256.658 451.304 265.375 443.772L265.148 443.819ZM498.926 310.587C498.173 313.397 487.182 334.338 477.415 350.711C477.415 350.711 495.902 328.497 498.294 312.946L498.926 310.587ZM490.31 346.958C489.691 349.266 488.698 351.367 487.362 354.345C488.002 353.366 488.519 352.312 488.902 351.207L490.72 345.83L490.41 346.985L490.31 346.958ZM373.984 468.893C361.538 475.188 341.328 485.965 332.638 491.491C344.101 487.254 355.041 481.72 365.247 474.998C366.483 474.199 370.191 471.804 374.034 468.906L373.984 468.893ZM344.861 62.4038C345.764 62.6459 346.668 62.8879 347.504 63.3809C347.778 63.426 348.047 63.4981 348.307 63.5961L344.793 62.6547L344.861 62.4038Z" fill="url(#paint1_radial)"/>
<path style="mix-blend-mode:multiply" d="M84.5873 158.195C63.7309 191.777 52.0724 230.253 50.7816 269.763C49.4908 309.274 58.613 348.429 77.2331 383.3C95.8531 418.172 123.316 447.533 156.867 468.439C190.418 489.345 228.877 501.061 268.385 502.41C254.631 493.062 241.946 482.231 230.559 470.11C193.874 430.746 178.302 377.834 178.061 324.726C177.878 289.283 185.63 254.248 200.748 222.19C213.045 196.354 230.413 173.254 251.818 154.265C289.252 121.079 338.296 104.051 388.242 106.897C402.293 107.694 416.256 109.636 429.992 112.705C419.184 102.643 407.437 93.6404 394.911 85.8209C344.155 54.2926 282.958 44.2057 224.769 57.7768C166.58 71.3479 116.159 107.467 84.5873 158.195Z" fill="url(#paint2_radial)"/>
<defs>
<radialGradient id="paint0_radial" cx="0" cy="0" r="1" gradientUnits="userSpaceOnUse" gradientTransform="translate(412.53 319.717) rotate(-68.7272) scale(322.291)">
<stop stop-color="#FF82A4"/>
<stop offset="0.3" stop-color="#CF3993"/>
<stop offset="0.55" stop-color="#901C87"/>
<stop offset="0.81" stop-color="#54007B"/>
</radialGradient>
<radialGradient id="paint1_radial" cx="0" cy="0" r="1" gradientUnits="userSpaceOnUse" gradientTransform="translate(416.61 312.822) rotate(-50.2249) scale(250.506)">
<stop stop-color="#FCE4D6"/>
<stop offset="0.26" stop-color="#E09299"/>
<stop offset="1" stop-color="#A11986"/>
</radialGradient>
<radialGradient id="paint2_radial" cx="0" cy="0" r="1" gradientUnits="userSpaceOnUse" gradientTransform="translate(310.717 290.159) rotate(-68.62) scale(278.472)">
<stop offset="0.59" stop-color="#CF948B"/>
<stop offset="0.77" stop-color="#983C81"/>
<stop offset="0.9" stop-color="#73007B"/>
</radialGradient>
</defs>
</svg>
